# xmcd
#
# Track frame offsets:
#	150
#	13307
#	28985
#	42057
#	53965
#	65360
#	77425
#	93417
#	103550
#	113832
#	127212
#	142850
#	156442
#	168975
#
# Disc length: 2448 seconds
#
# Revision: 0
# Processed by: cddbd v1.4PL0 Copyright (c) Steve Scherf et al.
# Submitted via: dBpowerAMP V4.0
#
DISCID=b9098e0e
DTITLE=Forró e Cia - Branca e Chaguinha
DYEAR=1900
DGENRE=Forró
TTITLE0=Forró e Cia - Feira de Mangaio
TTITLE1=Forró e Cia - Asa Branca
TTITLE2=Forró e Cia - Eu Só Quero Um Xodó
TTITLE3=Forró e Cia - Procurando Tu
TTITLE4=Forró e Cia - Bate Coração
TTITLE5=Forró e Cia - Carangueijo com Pimenta
TTITLE6=Forró e Cia - Total (Total)
TTITLE7=Forró e Cia - Mulher Rendeira
TTITLE8=Forró e Cia - Porque Tanto Amor
TTITLE9=Forró e Cia - Eu Me Amarrei
TTITLE10=Forró e Cia - Bom Demais
TTITLE11=Forró e Cia - Na Emenda
TTITLE12=Forró e Cia - Anarriê
TTITLE13=Forró e Cia - Bailão do Peão
EXTD=
EXTT0=
EXTT1=
EXTT2=
EXTT3=
EXTT4=
EXTT5=
EXTT6=
EXTT7=
EXTT8=
EXTT9=
EXTT10=
EXTT11=
EXTT12=
EXTT13=
PLAYORDER=
